HIERARCHY
ROOT Hips
{
	OFFSET 0.000000 71.427986 0.000000
	CHANNELS 6 Xposition Yposition Zposition Xrotation Yrotation Zrotation
	JOINT Pelvis
	{
		OFFSET 0.000000 0.000000 0.000000
		CHANNELS 3 Xrotation Yrotation Zrotation
		JOINT LeftUpLeg
		{
			OFFSET 6.797100 -2.508499 -1.318700
			CHANNELS 3 Xrotation Yrotation Zrotation
			JOINT LeftLeg
			{
				OFFSET 0.069008 -29.241863 0.690200
				CHANNELS 3 Xrotation Yrotation Zrotation
				JOINT LeftFoot
				{
					OFFSET -0.069008 -29.568123 -0.266800
					CHANNELS 3 Xrotation Yrotation Zrotation
					JOINT LeftToeBase
					{
						OFFSET 3.145500 -8.631000 16.059900
						CHANNELS 3 Xrotation Yrotation Zrotation
						End Site
						{
							OFFSET 0.000000 18.501587 0.000000
						}
					}
				}
			}
			JOINT Left_ShortSleeve
			{
				OFFSET 0.265923 -10.480953 1.153800
				CHANNELS 3 Xrotation Yrotation Zrotation
				End Site
				{
					OFFSET 1.725763 19.823879 0.000000
				}
			}
		}
		JOINT RightUpLeg
		{
			OFFSET -6.797100 -2.508499 -1.318700
			CHANNELS 3 Xrotation Yrotation Zrotation
			JOINT RightLeg
			{
				OFFSET -0.082453 -29.241932 0.688000
				CHANNELS 3 Xrotation Yrotation Zrotation
				JOINT RightFoot
				{
					OFFSET 0.082453 -29.568058 -0.264600
					CHANNELS 3 Xrotation Yrotation Zrotation
					JOINT RightToeBase
					{
						OFFSET -3.115300 -8.682800 16.113400
						CHANNELS 3 Xrotation Yrotation Zrotation
						End Site
						{
							OFFSET 0.000000 18.567114 0.000000
						}
					}
				}
			}
			JOINT Right_ShortSleeve
			{
				OFFSET -0.265923 -10.480953 1.153800
				CHANNELS 3 Xrotation Yrotation Zrotation
				End Site
				{
					OFFSET -1.725766 19.823910 0.000000
				}
			}
		}
	}
	JOINT Spine
	{
		OFFSET 0.000000 13.368103 0.470500
		CHANNELS 3 Xrotation Yrotation Zrotation
		JOINT Spine1
		{
			OFFSET 0.147000 13.837402 0.538800
			CHANNELS 3 Xrotation Yrotation Zrotation
			JOINT Spine2
			{
				OFFSET 0.168000 16.242897 -1.435500
				CHANNELS 3 Xrotation Yrotation Zrotation
				JOINT Neck
				{
					OFFSET 0.217200 18.631500 -1.679100
					CHANNELS 3 Xrotation Yrotation Zrotation
					JOINT Head
					{
						OFFSET 0.000000 6.599396 1.385900
						CHANNELS 3 Xrotation Yrotation Zrotation
						JOINT Hat
						{
							OFFSET -0.532200 27.220596 -10.096100
							CHANNELS 3 Xrotation Yrotation Zrotation
							End Site
							{
								OFFSET 0.000000 22.029861 0.000000
							}
						}
						JOINT HairD
						{
							OFFSET -10.777400 17.437393 -1.325900
							CHANNELS 3 Xrotation Yrotation Zrotation
							JOINT HairD1
							{
								OFFSET -3.290299 -11.051193 1.062200
								CHANNELS 3 Xrotation Yrotation Zrotation
								End Site
								{
									OFFSET 0.000000 11.579437 0.000000
								}
							}
						}
						JOINT HairB
						{
							OFFSET -10.777400 17.437393 1.467900
							CHANNELS 3 Xrotation Yrotation Zrotation
							JOINT HairB1
							{
								OFFSET -1.561200 -12.956299 3.590200
								CHANNELS 3 Xrotation Yrotation Zrotation
								End Site
								{
									OFFSET 0.000000 13.534866 0.000000
								}
							}
						}
						JOINT HairA
						{
							OFFSET 9.713100 17.437393 1.467900
							CHANNELS 3 Xrotation Yrotation Zrotation
							JOINT HairA1
							{
								OFFSET 1.561200 -12.956299 3.590200
								CHANNELS 3 Xrotation Yrotation Zrotation
								End Site
								{
									OFFSET 0.000000 13.534866 0.000000
								}
							}
						}
						JOINT HairC
						{
							OFFSET 9.713100 17.437393 -1.325900
							CHANNELS 3 Xrotation Yrotation Zrotation
							JOINT HairC1
							{
								OFFSET 3.290300 -11.051193 1.062200
								CHANNELS 3 Xrotation Yrotation Zrotation
								End Site
								{
									OFFSET 0.000000 11.579437 0.000000
								}
							}
						}
					}
				}
				JOINT LeftShoulder
				{
					OFFSET 5.101800 15.108002 -2.763700
					CHANNELS 3 Xrotation Yrotation Zrotation
					JOINT LeftArm
					{
						OFFSET 9.825497 2.506317 -1.597400
						CHANNELS 3 Xrotation Yrotation Zrotation
						JOINT LeftForeArm
						{
							OFFSET 21.966244 0.000000 0.000000
							CHANNELS 3 Xrotation Yrotation Zrotation
							JOINT LeftHand
							{
								OFFSET 33.879036 0.000000 0.000000
								CHANNELS 3 Xrotation Yrotation Zrotation
								JOINT LeftHandThumb1
								{
									OFFSET 6.715286 -2.359680 3.363841
									CHANNELS 3 Xrotation Yrotation Zrotation
									JOINT LeftHandThumb2
									{
										OFFSET 2.507072 -1.447464 1.447461
										CHANNELS 3 Xrotation Yrotation Zrotation
										JOINT LeftHandThumb3
										{
											OFFSET 2.898338 -1.673355 1.673357
											CHANNELS 3 Xrotation Yrotation Zrotation
											End Site
											{
												OFFSET -0.295959 3.727692 -0.131651
											}
										}
									}
								}
								JOINT LeftHandIndex1
								{
									OFFSET 14.190811 -0.254547 3.840278
									CHANNELS 3 Xrotation Yrotation Zrotation
									JOINT LeftHandIndex2
									{
										OFFSET 3.551727 0.000000 -0.000000
										CHANNELS 3 Xrotation Yrotation Zrotation
										JOINT LeftHandIndex3
										{
											OFFSET 2.894196 0.000000 0.000000
											CHANNELS 3 Xrotation Yrotation Zrotation
											End Site
											{
												OFFSET -1.000603 2.690872 0.366626
											}
										}
									}
								}
								JOINT LeftHandMiddle1
								{
									OFFSET 13.776489 0.000000 0.000000
									CHANNELS 3 Xrotation Yrotation Zrotation
									JOINT LeftHandMiddle2
									{
										OFFSET 3.438232 0.000000 0.000000
										CHANNELS 3 Xrotation Yrotation Zrotation
										JOINT LeftHandMiddle3
										{
											OFFSET 3.691551 0.000000 0.000000
											CHANNELS 3 Xrotation Yrotation Zrotation
											End Site
											{
												OFFSET -1.082298 3.499527 0.457670
											}
										}
									}
								}
								JOINT LeftHandRing1
								{
									OFFSET 13.966164 -0.268127 -3.067488
									CHANNELS 3 Xrotation Yrotation Zrotation
									JOINT LeftHandRing2
									{
										OFFSET 3.162567 0.000000 0.000000
										CHANNELS 3 Xrotation Yrotation Zrotation
										JOINT LeftHandRing3
										{
											OFFSET 3.324348 0.000000 0.000000
											CHANNELS 3 Xrotation Yrotation Zrotation
											End Site
											{
												OFFSET -0.861900 3.184998 0.405154
											}
										}
									}
								}
								JOINT LeftHandPinky1
								{
									OFFSET 13.131393 -0.168503 -5.746925
									CHANNELS 3 Xrotation Yrotation Zrotation
									JOINT LeftHandPinky2
									{
										OFFSET 2.849182 0.000000 0.000000
										CHANNELS 3 Xrotation Yrotation Zrotation
										JOINT LeftHandPinky3
										{
											OFFSET 2.805038 0.000000 0.000000
											CHANNELS 3 Xrotation Yrotation Zrotation
											End Site
											{
												OFFSET -0.882500 2.642609 0.325652
											}
										}
									}
								}
							}
							JOINT Left_Sleeve
							{
								OFFSET 6.592125 -0.646545 0.805568
								CHANNELS 3 Xrotation Yrotation Zrotation
								End Site
								{
									OFFSET -0.000179 20.275787 -0.000000
								}
							}
						}
					}
				}
				JOINT RightShoulder
				{
					OFFSET -5.731700 15.108002 -2.763700
					CHANNELS 3 Xrotation Yrotation Zrotation
					JOINT RightArm
					{
						OFFSET -9.825497 2.506317 -1.597400
						CHANNELS 3 Xrotation Yrotation Zrotation
						JOINT RightForeArm
						{
							OFFSET -21.966242 0.000000 0.000000
							CHANNELS 3 Xrotation Yrotation Zrotation
							JOINT RightHand
							{
								OFFSET -33.879032 0.000000 0.000000
								CHANNELS 3 Xrotation Yrotation Zrotation
								JOINT RightHandThumb1
								{
									OFFSET -6.715286 -2.359680 3.363841
									CHANNELS 3 Xrotation Yrotation Zrotation
									JOINT RightHandThumb2
									{
										OFFSET -2.507072 -1.447464 1.447461
										CHANNELS 3 Xrotation Yrotation Zrotation
										JOINT RightHandThumb3
										{
											OFFSET -2.898338 -1.673355 1.673357
											CHANNELS 3 Xrotation Yrotation Zrotation
											End Site
											{
												OFFSET 0.295959 3.727692 -0.131651
											}
										}
									}
								}
								JOINT RightHandIndex1
								{
									OFFSET -14.190811 -0.254547 3.840278
									CHANNELS 3 Xrotation Yrotation Zrotation
									JOINT RightHandIndex2
									{
										OFFSET -3.551727 0.000000 -0.000000
										CHANNELS 3 Xrotation Yrotation Zrotation
										JOINT RightHandIndex3
										{
											OFFSET -2.894196 0.000000 0.000000
											CHANNELS 3 Xrotation Yrotation Zrotation
											End Site
											{
												OFFSET 1.000603 2.690872 0.366626
											}
										}
									}
								}
								JOINT RightHandMiddle1
								{
									OFFSET -13.776489 0.000000 0.000000
									CHANNELS 3 Xrotation Yrotation Zrotation
									JOINT RightHandMiddle2
									{
										OFFSET -3.438232 0.000000 0.000000
										CHANNELS 3 Xrotation Yrotation Zrotation
										JOINT RightHandMiddle3
										{
											OFFSET -3.691551 0.000000 0.000000
											CHANNELS 3 Xrotation Yrotation Zrotation
											End Site
											{
												OFFSET 1.082298 3.499527 0.457670
											}
										}
									}
								}
								JOINT RightHandRing1
								{
									OFFSET -13.966164 -0.268127 -3.067488
									CHANNELS 3 Xrotation Yrotation Zrotation
									JOINT RightHandRing2
									{
										OFFSET -3.162567 0.000000 0.000000
										CHANNELS 3 Xrotation Yrotation Zrotation
										JOINT RightHandRing3
										{
											OFFSET -3.324348 0.000000 0.000000
											CHANNELS 3 Xrotation Yrotation Zrotation
											End Site
											{
												OFFSET 0.861900 3.184998 0.405154
											}
										}
									}
								}
								JOINT RightHandPinky1
								{
									OFFSET -13.131393 -0.168503 -5.746925
									CHANNELS 3 Xrotation Yrotation Zrotation
									JOINT RightHandPinky2
									{
										OFFSET -2.849182 0.000000 0.000000
										CHANNELS 3 Xrotation Yrotation Zrotation
										JOINT RightHandPinky3
										{
											OFFSET -2.805038 0.000000 0.000000
											CHANNELS 3 Xrotation Yrotation Zrotation
											End Site
											{
												OFFSET 0.882500 2.642609 0.325652
											}
										}
									}
								}
							}
							JOINT Right_Sleeve
							{
								OFFSET -6.592125 -0.646545 0.805568
								CHANNELS 3 Xrotation Yrotation Zrotation
								End Site
								{
									OFFSET 0.000179 20.275787 -0.000000
								}
							}
						}
					}
				}
				JOINT Bind_Right_JacketString
				{
					OFFSET -3.534800 11.969597 7.200700
					CHANNELS 3 Xrotation Yrotation Zrotation
					JOINT Bind_Right_JacketString1
					{
						OFFSET -0.319900 -6.102600 2.794100
						CHANNELS 3 Xrotation Yrotation Zrotation
						End Site
						{
							OFFSET 0.000000 6.719452 0.000000
						}
					}
				}
				JOINT Bind_Left_JacketString
				{
					OFFSET 2.904800 11.969597 7.200700
					CHANNELS 3 Xrotation Yrotation Zrotation
					JOINT Bind_Left_JacketString1
					{
						OFFSET 0.364800 -5.904503 3.186800
						CHANNELS 3 Xrotation Yrotation Zrotation
						End Site
						{
							OFFSET 0.000000 6.719513 0.000000
						}
					}
				}
				JOINT HairE
				{
					OFFSET 5.915200 17.612701 -11.592200
					CHANNELS 3 Xrotation Yrotation Zrotation
					JOINT HairE1
					{
						OFFSET 0.289200 -7.171898 -1.284500
						CHANNELS 3 Xrotation Yrotation Zrotation
						End Site
						{
							OFFSET 0.000000 7.291756 0.000000
						}
					}
				}
				JOINT HairF
				{
					OFFSET -0.864800 17.612701 -11.592200
					CHANNELS 3 Xrotation Yrotation Zrotation
					JOINT HairF1
					{
						OFFSET 0.000000 -14.087097 -2.127501
						CHANNELS 3 Xrotation Yrotation Zrotation
						End Site
						{
							OFFSET 0.000000 14.246841 0.000000
						}
					}
				}
				JOINT HairG
				{
					OFFSET -8.087700 17.612701 -11.592200
					CHANNELS 3 Xrotation Yrotation Zrotation
					JOINT HairG1
					{
						OFFSET -0.293600 -6.081398 -0.910100
						CHANNELS 3 Xrotation Yrotation Zrotation
						End Site
						{
							OFFSET 0.000000 6.156120 0.000000
						}
					}
				}
			}
		}
	}
	JOINT Pouch
	{
		OFFSET 0.000000 4.394501 10.847300
		CHANNELS 3 Xrotation Yrotation Zrotation
		End Site
		{
			OFFSET 0.000000 21.880577 0.000000
		}
	}
	JOINT Bag
	{
		OFFSET -13.229000 4.813004 -0.593300
		CHANNELS 3 Xrotation Yrotation Zrotation
		End Site
		{
			OFFSET 0.000000 21.880577 0.000000
		}
	}
	JOINT OccupyGuyFacialAnim_Joint
	{
		OFFSET 1.000000 -70.206398 -1.655000
		CHANNELS 3 Xrotation Yrotation Zrotation
		End Site
		{
			OFFSET 0.000000 21.880577 0.000000
		}
	}
}
MOTION
Frames: 4
Frame Time: 0.016667
-0.051069 78.355675 -1.586685 -89.650782 0.340046 0.934701 0.000000 0.000000 -0.000000 -3.047531 18.085458 17.610478 4.462105 7.056886 0.293811 27.038460 30.034712 -30.773035 0.000000 0.000001 -0.000000 -0.000000 0.000002 0.000002 -1.449414 -17.909381 -11.189177 1.724025 -7.089858 -7.526736 37.175142 -29.997040 30.574970 0.000001 0.000001 0.000001 -0.000000 0.000001 -0.000000 1.061445 -1.166746 0.731865 -0.317535 -2.434543 0.230484 -0.303419 -2.418349 0.331943 -10.007532 0.102138 -1.808069 8.692140 -2.170252 1.510696 0.000000 0.000000 -0.000000 0.000000 0.000000 -0.000000 0.000000 0.000000 -0.000000 0.000000 0.000000 -0.000000 0.000000 -0.000001 -0.000000 0.000000 0.000000 -0.000000 0.000000 -0.000001 -0.000000 0.000000 0.000000 -0.000000 0.000000 0.000000 -0.000000 0.422260 -0.102999 -4.005442 35.263649 -28.378555 -54.538418 -0.000085 -80.454185 -0.000084 -13.958247 -3.109600 -10.085395 6.590537 -4.958661 16.122663 7.178859 21.567306 2.147292 -0.000004 -0.000003 -0.000002 0.659517 4.932357 -26.024474 0.169785 1.401626 -13.813547 0.000004 -0.000000 -0.000000 1.376914 6.461952 -24.994186 0.169883 1.401960 -13.817111 0.000000 0.000004 -0.000004 2.098721 8.644284 -21.209682 0.169784 1.401609 -13.813546 -0.000002 -0.000001 -0.000000 2.123413 10.735868 -14.817571 0.167504 1.392248 -13.719340 -0.000000 -0.000001 0.000001 -0.000001 -0.000001 -0.000003 0.646693 1.792566 13.881975 39.542926 30.913344 33.651669 0.000227 101.347795 -0.000230 -34.905330 -9.303372 11.136932 -13.111082 7.817368 -0.096460 7.918257 -27.751663 -3.100775 0.000002 -0.000002 -0.000003 2.082857 12.897789 37.347450 0.497044 -2.095297 26.687149 -0.000001 0.000000 0.000000 -4.321308 1.650213 38.533482 0.529952 -2.159508 27.573965 0.000001 -0.000000 0.000001 -1.394396 -1.262373 31.742006 0.254159 -1.518991 18.997010 0.000001 0.000000 0.000001 0.189710 -3.422243 14.147210 0.162219 -1.219717 15.150972 -0.000003 0.000001 0.000002 0.000001 0.000000 0.000001 -0.000000 0.000000 -0.000000 -0.000000 0.000000 0.000000 -0.000000 0.000000 0.000000 -0.000000 0.000000 0.000000 -0.000000 0.000000 -0.000000 -0.000000 0.000000 0.000000 -0.000000 0.000000 0.000000 -0.000000 0.000000 0.000000 -0.000000 0.000000 -0.000000 -0.000000 0.000000 0.000000 0.000000 0.000000 -0.000000 0.000000 0.000000 -0.000000 0.000000 0.000000 -0.000000 
-0.056180 78.355339 -1.570015 -89.671641 0.432532 1.074539 0.000000 0.000000 0.000000 -3.061338 17.896965 17.468600 4.645697 6.929183 0.341253 27.004649 30.046747 -30.731142 -0.000001 0.000001 0.000000 -0.000000 -0.000000 -0.000001 -1.449331 -18.059252 -11.457032 1.817396 -6.766620 -7.262995 37.535107 -30.016649 30.568273 -0.000001 0.000002 0.000000 -0.000000 0.000002 0.000001 1.039876 -1.126299 0.724795 -0.418962 -2.373052 0.195801 -0.397363 -2.369104 0.309557 -9.992519 0.068523 -1.711925 8.739669 -2.317848 1.567081 -0.000000 0.000001 -0.000000 -0.000000 0.000001 -0.000000 -0.000000 0.000001 0.000000 -0.000000 0.000001 -0.000000 -0.000000 0.000001 0.000000 -0.000000 0.000001 -0.000000 -0.000000 0.000001 0.000000 -0.000000 0.000001 -0.000000 -0.000000 0.000001 -0.000000 0.461629 -0.727167 -4.005710 35.651682 -28.307487 -54.248316 -0.000113 -80.590058 -0.000094 -14.391685 -3.136430 -9.670750 6.590537 -4.958658 16.122667 7.178856 21.567309 2.147299 -0.000002 0.000001 -0.000003 0.659518 4.932351 -26.024476 0.169788 1.401625 -13.813536 0.000003 -0.000001 0.000002 1.376914 6.461956 -24.994183 0.169883 1.401964 -13.817119 0.000003 0.000001 -0.000001 2.098724 8.644281 -21.209682 0.169790 1.401616 -13.813547 -0.000001 0.000002 -0.000002 2.123414 10.735865 -14.817566 0.167505 1.392249 -13.719337 0.000001 -0.000002 0.000003 -0.000003 0.000003 0.000001 0.607856 1.777500 13.847701 37.902595 30.020051 36.590075 0.000082 101.247118 -0.000103 -36.596847 -9.378166 11.050567 -12.879203 8.193474 0.480515 7.914308 -27.716991 -3.098593 -0.000002 0.000000 0.000003 2.149284 12.733844 36.856869 0.492746 -2.086749 26.569576 -0.000002 -0.000002 0.000000 -4.264402 1.622372 38.347346 0.526200 -2.152303 27.474081 0.000002 -0.000000 -0.000001 -1.380225 -1.295190 31.813341 0.261191 -1.539255 19.260473 -0.000002 -0.000000 0.000001 0.197461 -3.452548 14.531497 0.170492 -1.249874 15.534985 0.000001 0.000000 -0.000001 0.000000 -0.000002 -0.000002 -0.000000 0.000000 -0.000000 0.000000 0.000000 -0.000000 -0.000000 0.000000 0.000000 -0.000000 0.000000 0.000000 -0.000000 0.000000 -0.000000 0.000000 0.000000 -0.000000 -0.000000 0.000000 0.000000 -0.000000 0.000000 0.000000 -0.000000 0.000000 -0.000000 0.000000 0.000000 -0.000000 0.000000 0.000000 0.000000 0.000000 0.000000 0.000000 0.000000 0.000000 0.000000 
-0.038092 78.353783 -1.567139 -89.707568 0.530715 1.216739 -0.000000 -0.000000 0.000000 -3.083657 17.689102 17.314652 4.918631 6.792572 0.387419 26.971775 30.047805 -30.673003 -0.000001 -0.000001 0.000000 -0.000000 -0.000001 0.000001 -1.369615 -18.228503 -11.737100 1.643806 -6.506060 -6.999119 38.380879 -30.032639 30.570550 0.000001 0.000001 0.000001 -0.000000 0.000001 -0.000000 1.018427 -1.086510 0.712213 -0.521705 -2.314062 0.161337 -0.492039 -2.319871 0.287191 -9.946360 0.033121 -1.614218 8.870998 -2.467347 1.625963 0.000000 0.000001 0.000000 0.000000 0.000001 0.000000 0.000000 0.000001 0.000000 0.000000 0.000001 -0.000000 0.000000 -0.000000 -0.000000 0.000000 0.000001 -0.000000 0.000000 -0.000000 -0.000000 0.000000 0.000001 0.000000 0.000000 0.000001 0.000000 0.507662 -1.375825 -4.005945 35.944513 -28.114959 -54.137080 0.000209 -80.729236 0.000235 -14.694916 -3.140318 -9.355488 6.590539 -4.958664 16.122662 7.178858 21.567309 2.147289 -0.000001 0.000001 -0.000003 0.659518 4.932352 -26.024476 0.169789 1.401626 -13.813544 -0.000001 0.000002 0.000000 1.376914 6.461952 -24.994183 0.169881 1.401959 -13.817112 -0.000001 0.000002 -0.000001 2.098722 8.644281 -21.209686 0.169791 1.401609 -13.813548 -0.000002 -0.000001 -0.000001 2.123418 10.735864 -14.817573 0.167506 1.392245 -13.719338 0.000001 -0.000001 0.000003 0.000001 -0.000002 -0.000003 0.569199 1.762515 13.812977 35.720738 29.082099 39.718557 0.000582 100.780124 -0.000595 -38.395809 -9.656052 11.081975 -12.219764 9.247327 2.040353 7.903570 -27.622900 -3.092643 0.000002 0.000000 -0.000000 2.313702 12.270287 35.528151 0.481200 -2.063497 26.250437 -0.000003 -0.000001 0.000000 -4.110308 1.543881 37.842349 0.516082 -2.132707 27.202996 0.000001 -0.000002 -0.000001 -1.341790 -1.387147 32.035841 0.281877 -1.597178 20.016013 0.000001 -0.000002 -0.000002 0.220590 -3.538238 15.622319 0.195088 -1.335143 16.624931 -0.000002 0.000000 0.000001 0.000000 -0.000001 0.000000 0.000000 0.000000 0.000000 0.000000 -0.000000 0.000000 0.000000 0.000000 0.000000 0.000000 0.000000 0.000000 0.000000 0.000000 0.000000 0.000000 -0.000000 0.000000 0.000000 0.000000 0.000000 0.000000 0.000000 0.000000 0.000000 0.000000 0.000000 0.000000 -0.000000 0.000000 -0.000000 -0.000000 0.000000 -0.000000 -0.000000 0.000000 -0.000000 -0.000000 0.000000 
-0.015351 78.351227 -1.563812 -89.747245 0.630503 1.360026 0.000000 -0.000000 -0.000000 -3.110570 17.475077 17.158357 5.216547 6.650761 0.432714 26.936098 30.048642 -30.566756 -0.000001 -0.000001 0.000000 -0.000000 0.000001 0.000002 -1.283588 -18.399898 -12.020174 1.408429 -6.280703 -6.739245 39.317817 -30.046101 30.574754 0.000002 0.000001 0.000000 -0.000000 0.000001 -0.000001 0.996964 -1.046746 0.695339 -0.624388 -2.255073 0.126877 -0.586709 -2.270637 0.264827 -9.868837 -0.003010 -1.517639 9.081816 -2.617592 1.685802 0.000000 0.000001 -0.000000 0.000000 0.000001 -0.000000 0.000000 0.000001 0.000000 0.000000 0.000001 -0.000000 0.000000 -0.000000 0.000000 0.000000 0.000001 -0.000000 0.000000 -0.000000 0.000000 0.000000 0.000001 -0.000000 0.000000 0.000001 -0.000000 0.565016 -2.038755 -3.968433 36.227825 -27.974500 -54.031212 0.000430 -80.847829 0.000422 -15.031148 -3.167403 -9.004454 6.590539 -4.958652 16.122658 7.178858 21.567306 2.147302 -0.000001 -0.000002 0.000001 0.659519 4.932356 -26.024469 0.169787 1.401621 -13.813543 0.000002 -0.000001 0.000001 1.376917 6.461957 -24.994186 0.169879 1.401963 -13.817112 -0.000000 -0.000002 0.000000 2.098722 8.644284 -21.209684 0.169786 1.401616 -13.813546 -0.000003 0.000003 -0.000000 2.123419 10.735868 -14.817573 0.167506 1.392252 -13.719343 -0.000001 -0.000002 0.000003 -0.000001 0.000002 0.000001 0.532897 1.739977 13.779534 33.134607 28.142888 42.894496 0.000831 99.988457 -0.000816 -40.318740 -10.120787 11.119192 -11.190735 10.888582 4.309756 7.887759 -27.484220 -3.083854 -0.000003 -0.000002 0.000003 2.511586 11.547067 33.578139 0.464409 -2.029107 25.780153 -0.000001 -0.000001 0.000004 -3.884893 1.420998 37.098705 0.501305 -2.103755 26.803513 0.000001 -0.000001 -0.000001 -1.284678 -1.528338 32.422249 0.316140 -1.688253 21.211444 -0.000001 0.000001 -0.000002 0.259992 -3.671169 17.326569 0.236717 -1.467370 18.327701 -0.000006 -0.000001 0.000000 0.000000 -0.000000 -0.000001 0.000000 -0.000000 -0.000000 0.000000 0.000000 -0.000000 0.000000 -0.000000 0.000000 0.000000 -0.000000 0.000000 0.000000 -0.000000 -0.000000 0.000000 0.000000 -0.000000 0.000000 -0.000000 0.000000 0.000000 -0.000000 0.000000 0.000000 -0.000000 -0.000000 0.000000 0.000000 -0.000000 0.000000 -0.000000 -0.000000 0.000000 -0.000000 -0.000000 0.000000 -0.000000 -0.000000 
